<svg width="9" height="11" viewBox="0 0 9 11" fill="none" xmlns="http://www.w3.org/2000/svg">
<path d="M4.76685 10.0451L4.7619 10.0461L4.72995 10.0621L4.72095 10.0639L4.71465 10.0621L4.6827 10.0461C4.6779 10.0445 4.6743 10.0453 4.6719 10.0483L4.6701 10.0529L4.66245 10.2491L4.6647 10.2583L4.6692 10.2643L4.716 10.2982L4.72275 10.3L4.72815 10.2982L4.77495 10.2643L4.78035 10.2569L4.78215 10.2491L4.7745 10.0534C4.7733 10.0485 4.77075 10.0457 4.76685 10.0451ZM4.8861 9.99333L4.88025 9.99425L4.797 10.0369L4.7925 10.0415L4.79115 10.0465L4.79925 10.2436L4.8015 10.2491L4.8051 10.2523L4.89555 10.295C4.90125 10.2965 4.9056 10.2953 4.9086 10.2913L4.9104 10.2849L4.8951 10.0034C4.8936 9.99792 4.8906 9.99456 4.8861 9.99333ZM4.56435 9.99425C4.56237 9.99303 4.56 9.99263 4.55773 9.99314C4.55547 9.99366 4.55349 9.99504 4.5522 9.997L4.5495 10.0034L4.5342 10.2849C4.5345 10.2904 4.53705 10.2941 4.54185 10.2959L4.5486 10.295L4.63905 10.2523L4.64355 10.2487L4.64535 10.2436L4.653 10.0465L4.65165 10.041L4.64715 10.0364L4.56435 9.99425Z" fill="white"/>
<path d="M4.5 0.300018C6.98535 0.300018 9 2.35237 9 4.88423C9 7.41609 6.98535 9.46844 4.5 9.46844C2.01465 9.46844 0 7.41609 0 4.88423C0 2.35237 2.01465 0.300018 4.5 0.300018ZM4.5 1.21686C3.54522 1.21686 2.62955 1.60324 1.95442 2.29101C1.27928 2.97877 0.9 3.91158 0.9 4.88423C0.9 5.85688 1.27928 6.78969 1.95442 7.47745C2.62955 8.16522 3.54522 8.5516 4.5 8.5516C5.45478 8.5516 6.37045 8.16522 7.04558 7.47745C7.72072 6.78969 8.1 5.85688 8.1 4.88423C8.1 3.91158 7.72072 2.97877 7.04558 2.29101C6.37045 1.60324 5.45478 1.21686 4.5 1.21686ZM4.5 2.1337C4.61022 2.13372 4.7166 2.17494 4.79897 2.24955C4.88133 2.32417 4.93395 2.42698 4.94685 2.53849L4.95 2.59212V4.69444L6.16815 5.93539C6.24886 6.01789 6.29571 6.12858 6.2992 6.245C6.30269 6.36142 6.26255 6.47482 6.18694 6.56218C6.11132 6.64954 6.0059 6.7043 5.89209 6.71535C5.77827 6.72639 5.6646 6.69289 5.57415 6.62165L5.53185 6.5836L4.18185 5.20833C4.11191 5.13702 4.06699 5.04422 4.05405 4.94428L4.05 4.88423V2.59212C4.05 2.47054 4.09741 2.35394 4.1818 2.26797C4.26619 2.182 4.38065 2.1337 4.5 2.1337Z" fill="white"/>
</svg>
